# File created by Blade
# Date/Time:  Tue Sep 30 19:35:54 2014
#---------------------------------------------------------
:version 1.10
:name HOM
:units
  mass 1.0
  length 1.000000
  angle deg
:documentation
     Acclaim Skeleton File
:root
   axis xyz
   order TX TY TZ RX RY RZ
   position 0.000000 0.000000 0.000000
   orientation 0 0 0
:bonedata
   begin
      id 1
      name Spine_dum
      direction 0.000000 1.000000 0.000000
      length 3.241213
      axis 0.0 0.0 0.0 xyz
   end
   begin
      id 2
      name LeftUpLeg_dum
      direction 1.000000 0.000000 0.000000
      length 3.434019
      axis 0.0 0.0 0.0 xyz
   end
   begin
      id 3
      name RightUpLeg_dum
      direction -1.000000 0.000000 0.000000
      length 3.434019
      axis 0.0 0.0 0.0 xyz
   end
   begin
      id 4
      name Spine
      direction 0.000000 1.000000 0.000000
      length 0.000000
      axis 0.0 0.0 0.0 xyz
      dof rx ry rz
   end
   begin
      id 5
      name Spine_dum1
      direction 0.000000 1.000000 0.000000
      length 18.382958
      axis 0.0 0.0 0.0 xyz
   end
   begin
      id 6
      name Spine_dum2
      direction 0.000000 1.000000 0.000000
      length 12.828261
      axis 0.0 0.0 0.0 xyz
   end
   begin
      id 7
      name Spine_dum3
      direction 0.000000 1.000000 0.000000
      length 12.828261
      axis 0.0 0.0 0.0 xyz
   end
   begin
      id 8
      name Head
      direction 0.000000 1.000000 0.000000
      length 4.527550
      axis 0.0 0.0 0.0 xyz
      dof rx ry rz
   end
   begin
      id 9
      name LeftShoulder
      direction 1.000000 0.000000 0.000000
      length 7.748055
      axis 0.0 0.0 -90.0 xyz
      dof rx ry rz
   end
   begin
      id 10
      name LeftArm
      direction 1.000000 0.000000 0.000000
      length 10.635614
      axis 0.0 0.0 -90.0 xyz
      dof rx ry rz
   end
   begin
      id 11
      name LeftForeArm
      direction 1.000000 0.000000 0.000000
      length 8.346755
      axis 0.0 0.0 -90.0 xyz
      dof ry rz rx
   end
   begin
      id 12
      name LeftHand
      direction 0.000000 0.000000 0.000000
      length 0.000000
      axis 0.0 0.0 -90.0 xyz
      dof rx ry rz
   end
   begin
      id 13
      name LeftHand_dum1
      direction 0.000000 0.000000 0.000000
      length 0.000000
      axis 0.0 0.0 -90.0 xyz
   end
   begin
      id 14
      name LeftHand_dum2
      direction 1.000000 0.000000 0.000000
      length 3.937000
      axis 0.0 0.0 -90.0 xyz
   end
   begin
      id 15
      name LeftHandThumb1
      direction 0.000000 0.000000 1.000000
      length 3.937000
      axis 0.0 0.0 -90.0 xyz
      dof rx rz ry
   end
   begin
      id 16
      name RightShoulder
      direction -1.000000 0.000000 0.000000
      length 7.748055
      axis 0.0 0.0 90.0 xyz
      dof rx ry rz
   end
   begin
      id 17
      name RightArm
      direction -1.000000 0.000000 0.000000
      length 10.635614
      axis 0.0 0.0 90.0 xyz
      dof rx ry rz
   end
   begin
      id 18
      name RightForeArm
      direction -1.000000 0.000000 0.000000
      length 8.346755
      axis 0.0 0.0 90.0 xyz
      dof ry rz rx
   end
   begin
      id 19
      name RightHand
      direction 0.000000 0.000000 0.000000
      length 0.000000
      axis 0.0 0.0 90.0 xyz
      dof rx ry rz
   end
   begin
      id 20
      name RightHand_dum1
      direction 0.000000 0.000000 0.000000
      length 0.000000
      axis 0.0 0.0 90.0 xyz
   end
   begin
      id 21
      name RightHand_dum2
      direction -1.000000 0.000000 0.000000
      length 3.937000
      axis 0.0 0.0 90.0 xyz
   end
   begin
      id 22
      name RightHandThumb1
      direction 0.000000 0.000000 1.000000
      length 3.937000
      axis 0.0 0.0 90.0 xyz
      dof rx rz ry
   end
   begin
      id 23
      name LeftUpLeg
      direction 0.000000 -1.000000 0.000000
      length 15.713025
      axis 0.0 0.0 0.0 xyz
      dof rx ry rz
   end
   begin
      id 24
      name LeftLeg
      direction 0.000000 -1.000000 0.000000
      length 14.435119
      axis 0.0 0.0 0.0 xyz
      dof rx ry rz
   end
   begin
      id 25
      name LeftFoot
      direction 0.000000 -0.258819 0.965926
      length 4.938895
      axis 15.0 0.0 0.0 xyz
      dof rx ry rz
   end
   begin
      id 26
      name LeftToeBase
      direction 0.000000 0.000000 1.000000
      length 2.952750
      axis 0.0 0.0 0.0 xyz
      dof rx ry rz
   end
   begin
      id 27
      name RightUpLeg
      direction 0.000000 -1.000000 0.000000
      length 15.713025
      axis 0.0 0.0 0.0 xyz
      dof rx ry rz
   end
   begin
      id 28
      name RightLeg
      direction 0.000000 -1.000000 0.000000
      length 14.435119
      axis 0.0 0.0 0.0 xyz
      dof rx ry rz
   end
   begin
      id 29
      name RightFoot
      direction 0.000000 -0.258819 0.965926
      length 4.938895
      axis 15.0 0.0 0.0 xyz
      dof rx ry rz
   end
   begin
      id 30
      name RightToeBase
      direction 0.000000 0.000000 1.000000
      length 2.952750
      axis 0.0 0.0 0.0 xyz
      dof rx ry rz
   end
:hierarchy
   begin
      root Spine_dum LeftUpLeg_dum RightUpLeg_dum
      Spine_dum Spine
      LeftUpLeg_dum LeftUpLeg
      RightUpLeg_dum RightUpLeg
      Spine Spine_dum1 Spine_dum2 Spine_dum3
      Spine_dum1 Head
      Spine_dum2 LeftShoulder
      Spine_dum3 RightShoulder
      LeftShoulder LeftArm
      LeftArm LeftForeArm
      LeftForeArm LeftHand
      LeftHand LeftHand_dum1 LeftHand_dum2
      LeftHand_dum1 LeftHandThumb1
      RightShoulder RightArm
      RightArm RightForeArm
      RightForeArm RightHand
      RightHand RightHand_dum1 RightHand_dum2
      RightHand_dum1 RightHandThumb1
      LeftUpLeg LeftLeg
      LeftLeg LeftFoot
      LeftFoot LeftToeBase
      RightUpLeg RightLeg
      RightLeg RightFoot
      RightFoot RightToeBase
   end

# File created by Blade
# Date/Time:  Tue Sep 23 19:15:59 2014
# Frame Rate: 120.000 fps
#------------------------------------------------------
:FULLY-SPECIFIED
:DEGREES
1234
root 2.198134 32.673985 -4.441255 43.339903 -40.160651 -24.613649
Spine -37.499211 -15.741543 28.536694
Head 7.994853 6.495191 -7.402388
LeftShoulder 8.725034 29.359598 30.615446
LeftArm 105.355315 20.231639 -39.491870
LeftForeArm 5.864559 -0.000000 31.088757
LeftHand 49.130307 -0.000000 -5.641932
LeftHandThumb1 -26.253704 0.000000 33.147579
RightShoulder -2.594119 -46.798907 -19.304391
RightArm 59.032726 -1.856232 77.109381
RightForeArm 32.514463 -0.000000 77.821541
RightHand 6.301728 0.000000 16.745679
RightHandThumb1 -24.326973 -0.000000 -32.862282
LeftUpLeg -34.182519 9.367494 6.579373
LeftLeg 22.555248 -0.000000 -0.000000
LeftFoot -16.722268 11.565212 4.545982
LeftToeBase 4.526511 -0.000000 -0.000000
RightUpLeg -167.806162 -23.482141 32.731991
RightLeg 128.102690 -0.000000 -0.000000
RightFoot 37.278002 -24.410382 12.569627
RightToeBase 42.624088 -0.000000 -0.000000
1235
root 2.200856 32.681076 -4.440613 43.552606 -40.545808 -24.736487
Spine -37.528120 -15.660140 28.477554
Head 8.004290 6.757013 -7.266806
LeftShoulder 8.697209 29.367385 30.640717
LeftArm 105.315074 20.281376 -39.519217
LeftForeArm 5.834165 0.000000 31.078252
LeftHand 49.114067 -0.000000 -5.587366
LeftHandThumb1 -26.253704 0.000000 33.147579
RightShoulder -2.576616 -46.769141 -19.313460
RightArm 59.027074 -1.906748 77.069861
RightForeArm 32.453641 0.000000 77.802806
RightHand 6.193789 0.000000 16.729779
RightHandThumb1 -24.326973 -0.000000 -32.862282
LeftUpLeg -34.137371 9.497208 6.468047
LeftLeg 22.399719 -0.000000 -0.000000
LeftFoot -16.679257 11.776203 4.454641
LeftToeBase 4.679835 -0.000000 -0.000000
RightUpLeg -167.749573 -23.357847 32.605881
RightLeg 128.112259 -0.000000 -0.000000
RightFoot 37.309561 -24.348200 12.537221
RightToeBase 42.727837 -0.000000 -0.000000
1236
root 2.201006 32.689485 -4.443741 43.763532 -40.878291 -24.865181
Spine -37.573495 -15.632834 28.452619
Head 8.044543 7.009659 -7.091580
LeftShoulder 8.676132 29.394350 30.690217
LeftArm 105.303974 20.325371 -39.574972
LeftForeArm 5.930509 -0.000000 30.979646
LeftHand 49.314199 -0.000000 -5.731048
LeftHandThumb1 -26.253704 0.000000 33.147579
RightShoulder -2.592879 -46.776940 -19.285204
RightArm 59.127794 -1.992273 76.969328
RightForeArm 32.562732 -0.000000 77.632049
RightHand 6.379927 -0.000000 16.684091
RightHandThumb1 -24.326973 -0.000000 -32.862282
LeftUpLeg -34.086027 9.542427 6.425411
LeftLeg 22.227198 -0.000000 -0.000000
LeftFoot -16.535157 12.041474 4.560878
LeftToeBase 5.021556 -0.000000 -0.000000
RightUpLeg -167.678477 -23.257671 32.482823
RightLeg 128.135790 -0.000000 -0.000000
RightFoot 37.281565 -24.314389 12.491420
RightToeBase 42.721363 -0.000000 -0.000000
1237
root 2.202111 32.695562 -4.446970 43.888747 -41.235294 -24.999476
Spine -37.515266 -15.625766 28.385085
Head 8.091764 7.249178 -6.919979
LeftShoulder 8.640393 29.391047 30.676075
LeftArm 105.291305 20.320632 -39.574736
LeftForeArm 5.725456 -0.000000 30.806480
LeftHand 49.297085 0.000000 -5.833558
LeftHandThumb1 -26.253704 0.000000 33.147579
RightShoulder -2.554566 -46.741453 -19.283127
RightArm 59.178467 -2.055137 76.929232
RightForeArm 32.474604 -0.000000 77.540859
RightHand 6.314883 -0.000000 16.724720
RightHandThumb1 -24.326973 -0.000000 -32.862282
LeftUpLeg -33.941067 9.655924 6.340352
LeftLeg 22.039551 -0.000000 -0.000000
LeftFoot -16.480736 12.292069 4.520663
LeftToeBase 5.188337 -0.000000 -0.000000
RightUpLeg -167.516379 -23.180109 32.305693
RightLeg 128.148204 -0.000000 -0.000000
RightFoot 37.277109 -24.355866 12.492171
RightToeBase 42.647593 -0.000000 -0.000000
1238
root 2.196824 32.706683 -4.443602 44.020352 -41.452980 -25.153782
Spine -37.523233 -15.668540 28.457134
Head 8.178301 7.484379 -6.793466
LeftShoulder 8.608338 29.412703 30.624105
LeftArm 105.311147 20.308276 -39.492199
LeftForeArm 5.707830 0.000000 30.652969
LeftHand 49.323284 0.000000 -5.807399
LeftHandThumb1 -26.253704 0.000000 33.147579
RightShoulder -2.504382 -46.737267 -19.303243
RightArm 59.235653 -2.092031 76.915666
RightForeArm 32.360083 -0.000000 77.449662
RightHand 6.254062 0.000000 16.763312
RightHandThumb1 -24.326973 -0.000000 -32.862282
LeftUpLeg -33.790905 9.702542 6.358603
LeftLeg 21.847191 -0.000000 -0.000000
LeftFoot -16.365839 12.544560 4.728844
LeftToeBase 5.773875 -0.000000 -0.000000
RightUpLeg -167.373653 -23.257612 32.289261
RightLeg 128.204506 -0.000000 -0.000000
RightFoot 37.122843 -24.356967 12.636659
RightToeBase 42.767409 -0.000000 -0.000000
1239
root 2.203566 32.711168 -4.453321 44.254095 -41.849459 -25.262581
Spine -37.551603 -15.581877 28.330329
Head 8.214852 7.713068 -6.518723
LeftShoulder 8.587444 29.394446 30.661015
LeftArm 105.309626 20.308198 -39.479533
LeftForeArm 5.597574 0.000000 30.503981
LeftHand 49.325541 -0.000000 -5.854880
LeftHandThumb1 -26.253704 0.000000 33.147579
RightShoulder -2.479376 -46.687557 -19.269031
RightArm 59.285919 -2.145650 76.927300
RightForeArm 32.198478 -0.000000 77.367366
RightHand 6.180018 -0.000000 16.818283
RightHandThumb1 -24.326973 -0.000000 -32.862282
LeftUpLeg -33.784888 9.739591 6.257510
LeftLeg 21.661682 -0.000000 -0.000000
LeftFoot -16.269460 12.920526 4.742514
LeftToeBase 5.435032 -0.000000 -0.000000
RightUpLeg -167.276358 -23.092146 31.985675
RightLeg 128.186677 -0.000000 -0.000000
RightFoot 37.129152 -24.461432 12.651071
RightToeBase 42.631975 -0.000000 -0.000000
1240
root 2.203159 32.718289 -4.459618 44.443770 -42.135506 -25.407756
Spine -37.562441 -15.550983 28.297435
Head 8.278723 7.903285 -6.280756
LeftShoulder 8.565604 29.417099 30.649859
LeftArm 105.318566 20.271259 -39.400808
LeftForeArm 5.531187 -0.000000 30.385035
LeftHand 49.314994 -0.000000 -5.847931
LeftHandThumb1 -26.253704 0.000000 33.147579
RightShoulder -2.416832 -46.663907 -19.261317
RightArm 59.333908 -2.168108 76.962734
RightForeArm 32.040604 0.000000 77.296102
RightHand 6.098768 -0.000000 16.890306
RightHandThumb1 -24.326973 -0.000000 -32.862282
LeftUpLeg -33.723164 9.800888 6.235280
LeftLeg 21.496781 -0.000000 -0.000000
LeftFoot -16.173958 13.133332 4.802011
LeftToeBase 5.408837 -0.000000 -0.000000
RightUpLeg -167.166322 -23.025501 31.883607
RightLeg 128.196614 -0.000000 -0.000000
RightFoot 37.178098 -24.417240 12.495416
RightToeBase 42.633310 -0.000000 -0.000000
1241
root 2.204026 32.726514 -4.469737 44.721645 -42.441067 -25.618618
Spine -37.581439 -15.464708 28.281184
Head 8.331018 8.100382 -6.002768
LeftShoulder 8.536598 29.470408 30.635603
LeftArm 105.347422 20.214822 -39.324147
LeftForeArm 5.335572 -0.000000 30.227874
LeftHand 49.422401 -0.000000 -5.946109
LeftHandThumb1 -26.253704 0.000000 33.147579
RightShoulder -2.371906 -46.575258 -19.245073
RightArm 59.348490 -2.237327 76.991050
RightForeArm 31.866196 -0.000000 77.182725
RightHand 6.084706 -0.000000 16.902212
RightHandThumb1 -24.326973 -0.000000 -32.862282
LeftUpLeg -33.717412 9.858156 6.250023
LeftLeg 21.364426 -0.000000 -0.000000
LeftFoot -16.083544 13.464279 4.870214
LeftToeBase 5.336744 -0.000000 -0.000000
RightUpLeg -167.004051 -22.933708 31.704510
RightLeg 128.205982 -0.000000 -0.000000
RightFoot 37.084619 -24.419452 12.646864
RightToeBase 42.641494 -0.000000 -0.000000
1242
root 2.202309 32.733499 -4.477349 44.951798 -42.716638 -25.815074
Spine -37.588637 -15.414021 28.279395
Head 8.400236 8.288254 -5.753480
LeftShoulder 8.508071 29.499094 30.617441
LeftArm 105.306468 20.215633 -39.275593
LeftForeArm 5.544231 -0.000000 30.153902
LeftHand 49.575749 -0.000000 -5.876583
LeftHandThumb1 -26.253704 0.000000 33.147579
RightShoulder -2.287158 -46.486250 -19.269336
RightArm 59.350637 -2.315918 77.005827
RightForeArm 31.750038 -0.000000 77.084964
RightHand 6.071507 -0.000000 16.898240
RightHandThumb1 -24.326973 -0.000000 -32.862282
LeftUpLeg -33.680557 9.896288 6.270682
LeftLeg 21.244173 -0.000000 -0.000000
LeftFoot -15.982927 13.753758 4.976242
LeftToeBase 5.311350 -0.000000 -0.000000
RightUpLeg -166.863468 -22.849689 31.600118
RightLeg 128.212830 -0.000000 -0.000000
RightFoot 37.230500 -24.243101 12.381927
RightToeBase 42.589934 -0.000000 -0.000000
